# xmcd
#
# Track frame offsets:
#	150
#	17880
#	32760
#	44490
#	61670
#	65785
#	84172
#	94257
#	111070
#	124402
#	137972
#	152315
#	171372
#
# Disc length: 2516 seconds
#
# Revision: 2
# Processed by: cddbd v1.5.2PL0 Copyright (c) Steve Scherf et al.
# Submitted via: audiograbber 1.83.01
#
DISCID=ae09d20d
DTITLE=Greene, Buddy - Christmas
DYEAR=1998
DGENRE=Christmas
TTITLE0=How Far Is It to Bethlehem and Mary, Did You Know?
TTITLE1=O Come, O Come Emmanuel and Come, Thou Long Expected Jesus
TTITLE2=Hark, the Herald Angels Sing and Joy to the World
TTITLE3=Glory to God in the Highest
TTITLE4=Bring a Torch, Jeanette, Isabella
TTITLE5=Little Drummer Boy
TTITLE6=Christmas Time's a'Comin'
TTITLE7=Deck the Halls and The Christmas Song
TTITLE8=Servant Way, The
TTITLE9=Not Just Any Night
TTITLE10=Silent night
TTITLE11=Go Tell it on the Mountain
TTITLE12=Mary, Did You Know? (Reprise)
EXTD=
EXTT0=
EXTT1=
EXTT2=
EXTT3=
EXTT4=
EXTT5=
EXTT6=
EXTT7=
EXTT8=
EXTT9=
EXTT10=
EXTT11=
EXTT12=
PLAYORDER=
